<svg xmlns="http://www.w3.org/2000/svg" viewBox="0 0 128 128">
  <defs>
    <linearGradient id="logoGradient" x1="0%" y1="0%" x2="100%" y2="100%">
      <stop offset="0%" style="stop-color:#2563eb;stop-opacity:1" />
      <stop offset="50%" style="stop-color:#9333ea;stop-opacity:1" />
      <stop offset="100%" style="stop-color:#db2777;stop-opacity:1" />
    </linearGradient>
  </defs>
  
  <!-- Background circle -->
  <circle cx="64" cy="64" r="60" fill="url(#logoGradient)" opacity="0.1"/>
  
  <!-- Rocket body -->
  <path d="M64 20 L74 60 L54 60 Z" fill="url(#logoGradient)"/>
  
  <!-- Rocket main body -->
  <rect x="58" y="60" width="12" height="45" rx="6" fill="url(#logoGradient)"/>
  
  <!-- Rocket fins -->
  <path d="M58 85 L45 100 L58 105 Z" fill="url(#logoGradient)" opacity="0.8"/>
  <path d="M70 85 L83 100 L70 105 Z" fill="url(#logoGradient)" opacity="0.8"/>
  
  <!-- Academic cap (integrated into rocket design) -->
  <ellipse cx="64" cy="68" rx="8" ry="4" fill="#fff" opacity="0.9"/>
  
  <!-- Window -->
  <circle cx="64" cy="75" r="4" fill="#fff" opacity="0.9"/>
  
  <!-- Motion lines -->
  <path d="M35 55 L45 50 M35 70 L43 68 M35 85 L45 88" stroke="url(#logoGradient)" stroke-width="2" stroke-linecap="round" opacity="0.4"/>
  <path d="M93 55 L83 50 M93 70 L85 68 M93 85 L83 88" stroke="url(#logoGradient)" stroke-width="2" stroke-linecap="round" opacity="0.4"/>
  
  <style>
    @media (prefers-color-scheme: dark) {
      circle[fill="url(#logoGradient)"][opacity="0.1"] { opacity: 0.2; }
    }
  </style>
</svg>
